<mxfile host="app.diagrams.net" modified="2021-04-17T08:35:56.253Z" agent="5.0 (Windows NT 10.0; Win64; x64) AppleWebKit/537.36 (KHTML, like Gecko) Chrome/88.0.4324.190 Safari/537.36" etag="rSG8R6VEg4tRsJX4wDaF" version="14.6.1" type="github">
  <diagram id="MDUveDNVsGfknaISGKXN" name="Page-1">
    <mxGraphModel dx="1038" dy="492" grid="0" gridSize="10" guides="1" tooltips="1" connect="1" arrows="1" fold="1" page="1" pageScale="1" pageWidth="827" pageHeight="1169" background="#FFFFFF" math="0" shadow="0">
      <root>
        <mxCell id="0" />
        <mxCell id="1" parent="0" />
        <mxCell id="H8iJmq6g7aI64bjXb-Z5-8" style="edgeStyle=orthogonalEdgeStyle;rounded=0;orthogonalLoop=1;jettySize=auto;html=1;entryX=0.5;entryY=0;entryDx=0;entryDy=0;" parent="1" source="H8iJmq6g7aI64bjXb-Z5-1" target="H8iJmq6g7aI64bjXb-Z5-2" edge="1">
          <mxGeometry relative="1" as="geometry" />
        </mxCell>
        <mxCell id="H8iJmq6g7aI64bjXb-Z5-1" value="&lt;font style=&quot;font-size: 16px&quot;&gt;Run函数开始&lt;/font&gt;" style="rounded=0;whiteSpace=wrap;html=1;fillColor=#fff2cc;strokeColor=#d6b656;" parent="1" vertex="1">
          <mxGeometry x="354" y="40" width="120" height="60" as="geometry" />
        </mxCell>
        <mxCell id="H8iJmq6g7aI64bjXb-Z5-9" style="edgeStyle=orthogonalEdgeStyle;rounded=0;orthogonalLoop=1;jettySize=auto;html=1;entryX=0.5;entryY=0;entryDx=0;entryDy=0;" parent="1" source="H8iJmq6g7aI64bjXb-Z5-2" target="H8iJmq6g7aI64bjXb-Z5-3" edge="1">
          <mxGeometry relative="1" as="geometry" />
        </mxCell>
        <mxCell id="H8iJmq6g7aI64bjXb-Z5-2" value="&lt;div style=&quot;font-size: 16px&quot;&gt;&lt;font style=&quot;font-size: 16px&quot;&gt;调用&lt;font color=&quot;#ea6b66&quot;&gt;初始化配置变量函数&lt;/font&gt;，从配&lt;/font&gt;&lt;/div&gt;&lt;div style=&quot;font-size: 16px&quot;&gt;&lt;font style=&quot;font-size: 16px&quot;&gt;置文件中读出各参数默认值，并&lt;/font&gt;&lt;/div&gt;&lt;div style=&quot;font-size: 16px&quot;&gt;&lt;font style=&quot;font-size: 16px&quot;&gt;为配置变量各个分量赋默认值&lt;/font&gt;&lt;/div&gt;" style="rounded=1;whiteSpace=wrap;html=1;fillColor=#dae8fc;strokeColor=#6c8ebf;" parent="1" vertex="1">
          <mxGeometry x="274" y="120" width="280" height="60" as="geometry" />
        </mxCell>
        <mxCell id="H8iJmq6g7aI64bjXb-Z5-10" style="edgeStyle=orthogonalEdgeStyle;rounded=0;orthogonalLoop=1;jettySize=auto;html=1;entryX=0.5;entryY=0;entryDx=0;entryDy=0;" parent="1" source="H8iJmq6g7aI64bjXb-Z5-3" target="H8iJmq6g7aI64bjXb-Z5-4" edge="1">
          <mxGeometry relative="1" as="geometry" />
        </mxCell>
        <mxCell id="H8iJmq6g7aI64bjXb-Z5-3" value="&lt;font style=&quot;font-size: 15px&quot;&gt;判断命令行的参数是否过多&lt;/font&gt;" style="rounded=1;whiteSpace=wrap;html=1;fillColor=#d5e8d4;strokeColor=#82b366;" parent="1" vertex="1">
          <mxGeometry x="317" y="200" width="194" height="60" as="geometry" />
        </mxCell>
        <mxCell id="H8iJmq6g7aI64bjXb-Z5-4" value="&lt;font style=&quot;font-size: 16px&quot;&gt;argc &amp;gt; 4 ?&lt;/font&gt;" style="rhombus;whiteSpace=wrap;html=1;" parent="1" vertex="1">
          <mxGeometry x="354" y="280" width="120" height="50" as="geometry" />
        </mxCell>
        <mxCell id="H8iJmq6g7aI64bjXb-Z5-72" style="edgeStyle=orthogonalEdgeStyle;rounded=0;orthogonalLoop=1;jettySize=auto;html=1;exitX=0.5;exitY=1;exitDx=0;exitDy=0;entryX=0.5;entryY=0;entryDx=0;entryDy=0;" parent="1" source="H8iJmq6g7aI64bjXb-Z5-17" target="H8iJmq6g7aI64bjXb-Z5-25" edge="1">
          <mxGeometry relative="1" as="geometry" />
        </mxCell>
        <mxCell id="H8iJmq6g7aI64bjXb-Z5-17" value="&lt;font style=&quot;font-size: 16px&quot;&gt;逐个处理命令行参数&lt;/font&gt;" style="rounded=1;whiteSpace=wrap;html=1;" parent="1" vertex="1">
          <mxGeometry x="331" y="350" width="166" height="60" as="geometry" />
        </mxCell>
        <mxCell id="H8iJmq6g7aI64bjXb-Z5-22" value="&lt;font style=&quot;font-size: 16px&quot;&gt;该参数是&lt;font color=&quot;#ea6b66&quot;&gt;合法数字&lt;/font&gt;？&lt;/font&gt;" style="rhombus;whiteSpace=wrap;html=1;" parent="1" vertex="1">
          <mxGeometry x="324" y="570" width="180" height="80" as="geometry" />
        </mxCell>
        <mxCell id="H8iJmq6g7aI64bjXb-Z5-25" value="&lt;font style=&quot;font-size: 16px&quot;&gt;待处理参数个数&lt;br&gt;argc &amp;gt; 0 ?&lt;/font&gt;" style="rhombus;whiteSpace=wrap;html=1;fillColor=#fff2cc;strokeColor=#d6b656;" parent="1" vertex="1">
          <mxGeometry x="329" y="430" width="170" height="120" as="geometry" />
        </mxCell>
        <mxCell id="H8iJmq6g7aI64bjXb-Z5-27" value="&lt;font style=&quot;font-size: 16px&quot;&gt;该参数是&lt;font color=&quot;#7ea6e0&quot;&gt;文件格式&lt;/font&gt;？&lt;/font&gt;" style="rhombus;whiteSpace=wrap;html=1;" parent="1" vertex="1">
          <mxGeometry x="324" y="680" width="180" height="80" as="geometry" />
        </mxCell>
        <mxCell id="H8iJmq6g7aI64bjXb-Z5-28" value="&lt;font style=&quot;font-size: 16px&quot;&gt;该参数是&lt;font color=&quot;#ea6b66&quot;&gt;合法路径&lt;/font&gt;？&lt;/font&gt;" style="rhombus;whiteSpace=wrap;html=1;" parent="1" vertex="1">
          <mxGeometry x="324" y="790" width="180" height="80" as="geometry" />
        </mxCell>
        <mxCell id="H8iJmq6g7aI64bjXb-Z5-29" value="&lt;font style=&quot;font-size: 16px&quot;&gt;将合法数字存入配置变量&lt;/font&gt;" style="rounded=0;whiteSpace=wrap;html=1;" parent="1" vertex="1">
          <mxGeometry x="580" y="580" width="190" height="60" as="geometry" />
        </mxCell>
        <mxCell id="H8iJmq6g7aI64bjXb-Z5-32" value="&lt;font style=&quot;font-size: 16px&quot;&gt;将文件格式存入配置变量&lt;/font&gt;" style="rounded=0;whiteSpace=wrap;html=1;" parent="1" vertex="1">
          <mxGeometry x="580" y="690" width="190" height="60" as="geometry" />
        </mxCell>
        <mxCell id="H8iJmq6g7aI64bjXb-Z5-33" value="&lt;font style=&quot;font-size: 16px&quot;&gt;将合法路径存入配置变量&lt;/font&gt;" style="rounded=0;whiteSpace=wrap;html=1;" parent="1" vertex="1">
          <mxGeometry x="580" y="800" width="190" height="60" as="geometry" />
        </mxCell>
        <mxCell id="H8iJmq6g7aI64bjXb-Z5-34" value="" style="endArrow=classic;html=1;exitX=1;exitY=0.5;exitDx=0;exitDy=0;entryX=0;entryY=0.5;entryDx=0;entryDy=0;" parent="1" source="H8iJmq6g7aI64bjXb-Z5-22" target="H8iJmq6g7aI64bjXb-Z5-29" edge="1">
          <mxGeometry relative="1" as="geometry">
            <mxPoint x="360" y="700" as="sourcePoint" />
            <mxPoint x="460" y="700" as="targetPoint" />
          </mxGeometry>
        </mxCell>
        <mxCell id="H8iJmq6g7aI64bjXb-Z5-35" value="Yes" style="edgeLabel;resizable=0;html=1;align=center;verticalAlign=middle;" parent="H8iJmq6g7aI64bjXb-Z5-34" connectable="0" vertex="1">
          <mxGeometry relative="1" as="geometry" />
        </mxCell>
        <mxCell id="H8iJmq6g7aI64bjXb-Z5-36" value="" style="endArrow=classic;html=1;exitX=1;exitY=0.5;exitDx=0;exitDy=0;entryX=0;entryY=0.5;entryDx=0;entryDy=0;" parent="1" edge="1">
          <mxGeometry relative="1" as="geometry">
            <mxPoint x="504" y="719.71" as="sourcePoint" />
            <mxPoint x="580" y="719.71" as="targetPoint" />
          </mxGeometry>
        </mxCell>
        <mxCell id="H8iJmq6g7aI64bjXb-Z5-37" value="Yes" style="edgeLabel;resizable=0;html=1;align=center;verticalAlign=middle;" parent="H8iJmq6g7aI64bjXb-Z5-36" connectable="0" vertex="1">
          <mxGeometry relative="1" as="geometry" />
        </mxCell>
        <mxCell id="H8iJmq6g7aI64bjXb-Z5-38" value="" style="endArrow=classic;html=1;exitX=1;exitY=0.5;exitDx=0;exitDy=0;entryX=0;entryY=0.5;entryDx=0;entryDy=0;" parent="1" edge="1">
          <mxGeometry relative="1" as="geometry">
            <mxPoint x="504" y="829.71" as="sourcePoint" />
            <mxPoint x="580" y="829.71" as="targetPoint" />
          </mxGeometry>
        </mxCell>
        <mxCell id="H8iJmq6g7aI64bjXb-Z5-39" value="Yes" style="edgeLabel;resizable=0;html=1;align=center;verticalAlign=middle;" parent="H8iJmq6g7aI64bjXb-Z5-38" connectable="0" vertex="1">
          <mxGeometry relative="1" as="geometry" />
        </mxCell>
        <mxCell id="H8iJmq6g7aI64bjXb-Z5-40" value="" style="endArrow=classic;html=1;exitX=0.5;exitY=1;exitDx=0;exitDy=0;entryX=0.5;entryY=0;entryDx=0;entryDy=0;" parent="1" source="H8iJmq6g7aI64bjXb-Z5-22" target="H8iJmq6g7aI64bjXb-Z5-27" edge="1">
          <mxGeometry relative="1" as="geometry">
            <mxPoint x="430" y="710" as="sourcePoint" />
            <mxPoint x="530" y="710" as="targetPoint" />
          </mxGeometry>
        </mxCell>
        <mxCell id="H8iJmq6g7aI64bjXb-Z5-41" value="No" style="edgeLabel;resizable=0;html=1;align=center;verticalAlign=middle;" parent="H8iJmq6g7aI64bjXb-Z5-40" connectable="0" vertex="1">
          <mxGeometry relative="1" as="geometry" />
        </mxCell>
        <mxCell id="H8iJmq6g7aI64bjXb-Z5-42" value="" style="endArrow=classic;html=1;exitX=0.5;exitY=1;exitDx=0;exitDy=0;entryX=0.5;entryY=0;entryDx=0;entryDy=0;" parent="1" edge="1">
          <mxGeometry relative="1" as="geometry">
            <mxPoint x="413.8" y="760" as="sourcePoint" />
            <mxPoint x="413.8" y="790" as="targetPoint" />
          </mxGeometry>
        </mxCell>
        <mxCell id="H8iJmq6g7aI64bjXb-Z5-43" value="No" style="edgeLabel;resizable=0;html=1;align=center;verticalAlign=middle;" parent="H8iJmq6g7aI64bjXb-Z5-42" connectable="0" vertex="1">
          <mxGeometry relative="1" as="geometry" />
        </mxCell>
        <mxCell id="H8iJmq6g7aI64bjXb-Z5-52" value="" style="endArrow=none;html=1;exitX=1;exitY=0.5;exitDx=0;exitDy=0;" parent="1" source="H8iJmq6g7aI64bjXb-Z5-29" edge="1">
          <mxGeometry width="50" height="50" relative="1" as="geometry">
            <mxPoint x="640" y="700" as="sourcePoint" />
            <mxPoint x="800" y="610" as="targetPoint" />
          </mxGeometry>
        </mxCell>
        <mxCell id="H8iJmq6g7aI64bjXb-Z5-55" value="" style="endArrow=none;html=1;exitX=1;exitY=0.5;exitDx=0;exitDy=0;" parent="1" edge="1">
          <mxGeometry width="50" height="50" relative="1" as="geometry">
            <mxPoint x="770" y="719.76" as="sourcePoint" />
            <mxPoint x="800" y="719.76" as="targetPoint" />
          </mxGeometry>
        </mxCell>
        <mxCell id="H8iJmq6g7aI64bjXb-Z5-56" value="" style="endArrow=none;html=1;exitX=1;exitY=0.5;exitDx=0;exitDy=0;" parent="1" edge="1">
          <mxGeometry width="50" height="50" relative="1" as="geometry">
            <mxPoint x="770" y="829.76" as="sourcePoint" />
            <mxPoint x="800" y="829.76" as="targetPoint" />
          </mxGeometry>
        </mxCell>
        <mxCell id="H8iJmq6g7aI64bjXb-Z5-66" value="" style="endArrow=classic;html=1;exitX=0.5;exitY=1;exitDx=0;exitDy=0;" parent="1" source="H8iJmq6g7aI64bjXb-Z5-28" edge="1">
          <mxGeometry relative="1" as="geometry">
            <mxPoint x="390" y="890" as="sourcePoint" />
            <mxPoint x="500" y="490" as="targetPoint" />
            <Array as="points">
              <mxPoint x="414" y="910" />
              <mxPoint x="800" y="910" />
              <mxPoint x="800" y="490" />
            </Array>
          </mxGeometry>
        </mxCell>
        <mxCell id="H8iJmq6g7aI64bjXb-Z5-67" value="No" style="edgeLabel;resizable=0;html=1;align=center;verticalAlign=middle;" parent="H8iJmq6g7aI64bjXb-Z5-66" connectable="0" vertex="1">
          <mxGeometry relative="1" as="geometry">
            <mxPoint x="-386" y="127" as="offset" />
          </mxGeometry>
        </mxCell>
        <mxCell id="H8iJmq6g7aI64bjXb-Z5-68" value="" style="endArrow=classic;html=1;exitX=0.5;exitY=1;exitDx=0;exitDy=0;entryX=0.5;entryY=0;entryDx=0;entryDy=0;" parent="1" source="H8iJmq6g7aI64bjXb-Z5-25" target="H8iJmq6g7aI64bjXb-Z5-22" edge="1">
          <mxGeometry relative="1" as="geometry">
            <mxPoint x="340" y="630" as="sourcePoint" />
            <mxPoint x="440" y="630" as="targetPoint" />
          </mxGeometry>
        </mxCell>
        <mxCell id="H8iJmq6g7aI64bjXb-Z5-69" value="Yes" style="edgeLabel;resizable=0;html=1;align=center;verticalAlign=middle;" parent="H8iJmq6g7aI64bjXb-Z5-68" connectable="0" vertex="1">
          <mxGeometry relative="1" as="geometry" />
        </mxCell>
        <mxCell id="H8iJmq6g7aI64bjXb-Z5-70" value="" style="endArrow=classic;html=1;exitX=0.5;exitY=1;exitDx=0;exitDy=0;entryX=0.5;entryY=0;entryDx=0;entryDy=0;" parent="1" source="H8iJmq6g7aI64bjXb-Z5-4" target="H8iJmq6g7aI64bjXb-Z5-17" edge="1">
          <mxGeometry relative="1" as="geometry">
            <mxPoint x="340" y="460" as="sourcePoint" />
            <mxPoint x="440" y="460" as="targetPoint" />
          </mxGeometry>
        </mxCell>
        <mxCell id="H8iJmq6g7aI64bjXb-Z5-71" value="Yes" style="edgeLabel;resizable=0;html=1;align=center;verticalAlign=middle;" parent="H8iJmq6g7aI64bjXb-Z5-70" connectable="0" vertex="1">
          <mxGeometry relative="1" as="geometry" />
        </mxCell>
        <mxCell id="H8iJmq6g7aI64bjXb-Z5-73" value="" style="endArrow=classic;html=1;exitX=0;exitY=0.5;exitDx=0;exitDy=0;" parent="1" source="H8iJmq6g7aI64bjXb-Z5-25" target="H8iJmq6g7aI64bjXb-Z5-75" edge="1">
          <mxGeometry relative="1" as="geometry">
            <mxPoint x="340" y="630" as="sourcePoint" />
            <mxPoint x="280" y="960" as="targetPoint" />
            <Array as="points">
              <mxPoint x="120" y="490" />
              <mxPoint x="120" y="960" />
            </Array>
          </mxGeometry>
        </mxCell>
        <mxCell id="H8iJmq6g7aI64bjXb-Z5-74" value="No" style="edgeLabel;resizable=0;html=1;align=center;verticalAlign=middle;" parent="H8iJmq6g7aI64bjXb-Z5-73" connectable="0" vertex="1">
          <mxGeometry relative="1" as="geometry">
            <mxPoint x="130" y="-255" as="offset" />
          </mxGeometry>
        </mxCell>
        <mxCell id="H8iJmq6g7aI64bjXb-Z5-126" style="edgeStyle=orthogonalEdgeStyle;rounded=0;orthogonalLoop=1;jettySize=auto;html=1;exitX=0.5;exitY=1;exitDx=0;exitDy=0;entryX=0.5;entryY=0;entryDx=0;entryDy=0;" parent="1" source="H8iJmq6g7aI64bjXb-Z5-75" target="H8iJmq6g7aI64bjXb-Z5-76" edge="1">
          <mxGeometry relative="1" as="geometry" />
        </mxCell>
        <mxCell id="H8iJmq6g7aI64bjXb-Z5-75" value="&lt;font style=&quot;font-size: 16px&quot;&gt;命令行参数处理完毕&lt;/font&gt;" style="rounded=1;whiteSpace=wrap;html=1;" parent="1" vertex="1">
          <mxGeometry x="328" y="930" width="170.5" height="60" as="geometry" />
        </mxCell>
        <mxCell id="H8iJmq6g7aI64bjXb-Z5-116" style="edgeStyle=orthogonalEdgeStyle;rounded=0;orthogonalLoop=1;jettySize=auto;html=1;exitX=0.5;exitY=1;exitDx=0;exitDy=0;entryX=0.5;entryY=0;entryDx=0;entryDy=0;" parent="1" source="H8iJmq6g7aI64bjXb-Z5-76" target="H8iJmq6g7aI64bjXb-Z5-111" edge="1">
          <mxGeometry relative="1" as="geometry">
            <mxPoint x="413.3333333333335" y="1110" as="targetPoint" />
          </mxGeometry>
        </mxCell>
        <mxCell id="H8iJmq6g7aI64bjXb-Z5-76" value="&lt;font style=&quot;font-size: 16px&quot;&gt;判断参数设置情况&lt;/font&gt;" style="rounded=1;whiteSpace=wrap;html=1;fillColor=#d5e8d4;strokeColor=#82b366;" parent="1" vertex="1">
          <mxGeometry x="328" y="1020" width="170.5" height="60" as="geometry" />
        </mxCell>
        <mxCell id="H8iJmq6g7aI64bjXb-Z5-77" value="&lt;font style=&quot;font-size: 16px&quot;&gt;该参数是&lt;font color=&quot;#ea6b66&quot;&gt;合法数字&lt;/font&gt;？&lt;/font&gt;" style="rhombus;whiteSpace=wrap;html=1;" parent="1" vertex="1">
          <mxGeometry x="324" y="570" width="180" height="80" as="geometry" />
        </mxCell>
        <mxCell id="H8iJmq6g7aI64bjXb-Z5-78" value="&lt;font style=&quot;font-size: 16px&quot;&gt;该参数是&lt;font color=&quot;#ea6b66&quot;&gt;合法数字&lt;/font&gt;？&lt;/font&gt;" style="rhombus;whiteSpace=wrap;html=1;" parent="1" vertex="1">
          <mxGeometry x="324" y="570" width="180" height="80" as="geometry" />
        </mxCell>
        <mxCell id="H8iJmq6g7aI64bjXb-Z5-79" value="" style="endArrow=classic;html=1;exitX=1;exitY=0.5;exitDx=0;exitDy=0;entryX=0;entryY=0.5;entryDx=0;entryDy=0;" parent="1" target="H8iJmq6g7aI64bjXb-Z5-81" edge="1">
          <mxGeometry relative="1" as="geometry">
            <mxPoint x="504" y="610" as="sourcePoint" />
            <mxPoint x="460" y="700" as="targetPoint" />
          </mxGeometry>
        </mxCell>
        <mxCell id="H8iJmq6g7aI64bjXb-Z5-80" value="Yes" style="edgeLabel;resizable=0;html=1;align=center;verticalAlign=middle;" parent="H8iJmq6g7aI64bjXb-Z5-79" connectable="0" vertex="1">
          <mxGeometry relative="1" as="geometry" />
        </mxCell>
        <mxCell id="H8iJmq6g7aI64bjXb-Z5-81" value="&lt;font style=&quot;font-size: 16px&quot;&gt;将合法数字存入配置变量&lt;/font&gt;" style="rounded=0;whiteSpace=wrap;html=1;" parent="1" vertex="1">
          <mxGeometry x="580" y="580" width="190" height="60" as="geometry" />
        </mxCell>
        <mxCell id="H8iJmq6g7aI64bjXb-Z5-82" value="&lt;font style=&quot;font-size: 16px&quot;&gt;将文件格式存入配置变量&lt;/font&gt;" style="rounded=0;whiteSpace=wrap;html=1;" parent="1" vertex="1">
          <mxGeometry x="580" y="690" width="190" height="60" as="geometry" />
        </mxCell>
        <mxCell id="H8iJmq6g7aI64bjXb-Z5-83" value="&lt;font style=&quot;font-size: 16px&quot;&gt;该参数是&lt;font color=&quot;#ea6b66&quot;&gt;合法数字&lt;/font&gt;？&lt;/font&gt;" style="rhombus;whiteSpace=wrap;html=1;" parent="1" vertex="1">
          <mxGeometry x="323" y="1120" width="180" height="80" as="geometry" />
        </mxCell>
        <mxCell id="H8iJmq6g7aI64bjXb-Z5-84" value="&lt;span style=&quot;font-size: 16px&quot;&gt;成功设置&lt;font color=&quot;#7ea6e0&quot;&gt;文件路径&lt;/font&gt;？&lt;/span&gt;" style="rhombus;whiteSpace=wrap;html=1;" parent="1" vertex="1">
          <mxGeometry x="323" y="1230" width="180" height="80" as="geometry" />
        </mxCell>
        <mxCell id="H8iJmq6g7aI64bjXb-Z5-85" value="&lt;font style=&quot;font-size: 16px&quot;&gt;用户&lt;font color=&quot;#ea6b66&quot;&gt;自定义了路径&lt;/font&gt;？&lt;/font&gt;" style="rhombus;whiteSpace=wrap;html=1;" parent="1" vertex="1">
          <mxGeometry x="323" y="1340" width="180" height="80" as="geometry" />
        </mxCell>
        <mxCell id="H8iJmq6g7aI64bjXb-Z5-86" value="&lt;font style=&quot;font-size: 16px&quot;&gt;将合法数字存入配置变量&lt;/font&gt;" style="rounded=0;whiteSpace=wrap;html=1;" parent="1" vertex="1">
          <mxGeometry x="579" y="1130" width="190" height="60" as="geometry" />
        </mxCell>
        <mxCell id="H8iJmq6g7aI64bjXb-Z5-87" value="&lt;font style=&quot;font-size: 16px&quot;&gt;将文件格式存入配置变量&lt;/font&gt;" style="rounded=0;whiteSpace=wrap;html=1;" parent="1" vertex="1">
          <mxGeometry x="579" y="1240" width="190" height="60" as="geometry" />
        </mxCell>
        <mxCell id="H8iJmq6g7aI64bjXb-Z5-88" value="&lt;font style=&quot;font-size: 16px&quot;&gt;将路径分离存入配置变量&lt;/font&gt;" style="rounded=0;whiteSpace=wrap;html=1;" parent="1" vertex="1">
          <mxGeometry x="579" y="1350" width="190" height="60" as="geometry" />
        </mxCell>
        <mxCell id="H8iJmq6g7aI64bjXb-Z5-89" value="" style="endArrow=classic;html=1;exitX=1;exitY=0.5;exitDx=0;exitDy=0;entryX=0;entryY=0.5;entryDx=0;entryDy=0;" parent="1" source="H8iJmq6g7aI64bjXb-Z5-83" target="H8iJmq6g7aI64bjXb-Z5-86" edge="1">
          <mxGeometry relative="1" as="geometry">
            <mxPoint x="359" y="1250" as="sourcePoint" />
            <mxPoint x="459" y="1250" as="targetPoint" />
          </mxGeometry>
        </mxCell>
        <mxCell id="H8iJmq6g7aI64bjXb-Z5-91" value="" style="endArrow=classic;html=1;exitX=1;exitY=0.5;exitDx=0;exitDy=0;entryX=0;entryY=0.5;entryDx=0;entryDy=0;" parent="1" edge="1">
          <mxGeometry relative="1" as="geometry">
            <mxPoint x="503" y="1269.71" as="sourcePoint" />
            <mxPoint x="579" y="1269.71" as="targetPoint" />
          </mxGeometry>
        </mxCell>
        <mxCell id="H8iJmq6g7aI64bjXb-Z5-92" value="No" style="edgeLabel;resizable=0;html=1;align=center;verticalAlign=middle;" parent="H8iJmq6g7aI64bjXb-Z5-91" connectable="0" vertex="1">
          <mxGeometry relative="1" as="geometry" />
        </mxCell>
        <mxCell id="H8iJmq6g7aI64bjXb-Z5-93" value="" style="endArrow=classic;html=1;exitX=1;exitY=0.5;exitDx=0;exitDy=0;entryX=0;entryY=0.5;entryDx=0;entryDy=0;" parent="1" edge="1">
          <mxGeometry relative="1" as="geometry">
            <mxPoint x="503" y="1379.71" as="sourcePoint" />
            <mxPoint x="579" y="1379.71" as="targetPoint" />
          </mxGeometry>
        </mxCell>
        <mxCell id="H8iJmq6g7aI64bjXb-Z5-94" value="Yes" style="edgeLabel;resizable=0;html=1;align=center;verticalAlign=middle;" parent="H8iJmq6g7aI64bjXb-Z5-93" connectable="0" vertex="1">
          <mxGeometry relative="1" as="geometry" />
        </mxCell>
        <mxCell id="H8iJmq6g7aI64bjXb-Z5-95" value="" style="endArrow=classic;html=1;exitX=0.5;exitY=1;exitDx=0;exitDy=0;entryX=0.5;entryY=0;entryDx=0;entryDy=0;" parent="1" source="H8iJmq6g7aI64bjXb-Z5-83" target="H8iJmq6g7aI64bjXb-Z5-84" edge="1">
          <mxGeometry relative="1" as="geometry">
            <mxPoint x="429" y="1260" as="sourcePoint" />
            <mxPoint x="529" y="1260" as="targetPoint" />
          </mxGeometry>
        </mxCell>
        <mxCell id="H8iJmq6g7aI64bjXb-Z5-96" value="Yes" style="edgeLabel;resizable=0;html=1;align=center;verticalAlign=middle;" parent="H8iJmq6g7aI64bjXb-Z5-95" connectable="0" vertex="1">
          <mxGeometry relative="1" as="geometry" />
        </mxCell>
        <mxCell id="H8iJmq6g7aI64bjXb-Z5-97" value="" style="endArrow=classic;html=1;exitX=0.5;exitY=1;exitDx=0;exitDy=0;entryX=0.5;entryY=0;entryDx=0;entryDy=0;" parent="1" edge="1">
          <mxGeometry relative="1" as="geometry">
            <mxPoint x="412.65999999999997" y="1310" as="sourcePoint" />
            <mxPoint x="412.65999999999997" y="1340" as="targetPoint" />
          </mxGeometry>
        </mxCell>
        <mxCell id="H8iJmq6g7aI64bjXb-Z5-98" value="Yes" style="edgeLabel;resizable=0;html=1;align=center;verticalAlign=middle;" parent="H8iJmq6g7aI64bjXb-Z5-97" connectable="0" vertex="1">
          <mxGeometry relative="1" as="geometry" />
        </mxCell>
        <mxCell id="H8iJmq6g7aI64bjXb-Z5-106" value="" style="endArrow=classic;html=1;exitX=0.5;exitY=1;exitDx=0;exitDy=0;entryX=0.5;entryY=0;entryDx=0;entryDy=0;" parent="1" source="H8iJmq6g7aI64bjXb-Z5-85" target="H8iJmq6g7aI64bjXb-Z5-123" edge="1">
          <mxGeometry relative="1" as="geometry">
            <mxPoint x="389" y="1440" as="sourcePoint" />
            <mxPoint x="413" y="1450" as="targetPoint" />
            <Array as="points">
              <mxPoint x="413" y="1440" />
            </Array>
          </mxGeometry>
        </mxCell>
        <mxCell id="H8iJmq6g7aI64bjXb-Z5-107" value="No" style="edgeLabel;resizable=0;html=1;align=center;verticalAlign=middle;" parent="H8iJmq6g7aI64bjXb-Z5-106" connectable="0" vertex="1">
          <mxGeometry relative="1" as="geometry" />
        </mxCell>
        <mxCell id="H8iJmq6g7aI64bjXb-Z5-110" value="&lt;font style=&quot;font-size: 16px&quot;&gt;该参数是&lt;font color=&quot;#ea6b66&quot;&gt;合法数字&lt;/font&gt;？&lt;/font&gt;" style="rhombus;whiteSpace=wrap;html=1;" parent="1" vertex="1">
          <mxGeometry x="323" y="1120" width="180" height="80" as="geometry" />
        </mxCell>
        <mxCell id="H8iJmq6g7aI64bjXb-Z5-111" value="&lt;span style=&quot;font-size: 16px&quot;&gt;成功设置&lt;font color=&quot;#67ab9f&quot;&gt;记录条数&lt;/font&gt;？&lt;/span&gt;" style="rhombus;whiteSpace=wrap;html=1;" parent="1" vertex="1">
          <mxGeometry x="323" y="1120" width="180" height="80" as="geometry" />
        </mxCell>
        <mxCell id="H8iJmq6g7aI64bjXb-Z5-112" value="" style="endArrow=classic;html=1;exitX=1;exitY=0.5;exitDx=0;exitDy=0;entryX=0;entryY=0.5;entryDx=0;entryDy=0;" parent="1" target="H8iJmq6g7aI64bjXb-Z5-114" edge="1">
          <mxGeometry relative="1" as="geometry">
            <mxPoint x="503" y="1160" as="sourcePoint" />
            <mxPoint x="459" y="1250" as="targetPoint" />
          </mxGeometry>
        </mxCell>
        <mxCell id="H8iJmq6g7aI64bjXb-Z5-113" value="No" style="edgeLabel;resizable=0;html=1;align=center;verticalAlign=middle;" parent="H8iJmq6g7aI64bjXb-Z5-112" connectable="0" vertex="1">
          <mxGeometry relative="1" as="geometry">
            <mxPoint as="offset" />
          </mxGeometry>
        </mxCell>
        <mxCell id="H8iJmq6g7aI64bjXb-Z5-114" value="&lt;span style=&quot;font-size: 16px&quot;&gt;提示用户输入&lt;/span&gt;&lt;span style=&quot;font-size: 16px&quot;&gt;记录条数&lt;/span&gt;" style="rounded=0;whiteSpace=wrap;html=1;" parent="1" vertex="1">
          <mxGeometry x="579" y="1130" width="190" height="60" as="geometry" />
        </mxCell>
        <mxCell id="H8iJmq6g7aI64bjXb-Z5-115" value="&lt;span style=&quot;font-size: 16px&quot;&gt;提示用户输入&lt;/span&gt;&lt;span style=&quot;font-size: 16px&quot;&gt;文件路径&lt;/span&gt;" style="rounded=0;whiteSpace=wrap;html=1;" parent="1" vertex="1">
          <mxGeometry x="579" y="1240" width="190" height="60" as="geometry" />
        </mxCell>
        <mxCell id="H8iJmq6g7aI64bjXb-Z5-118" value="" style="endArrow=classic;html=1;exitX=1;exitY=0.5;exitDx=0;exitDy=0;" parent="1" source="H8iJmq6g7aI64bjXb-Z5-114" edge="1">
          <mxGeometry width="50" height="50" relative="1" as="geometry">
            <mxPoint x="490" y="1210" as="sourcePoint" />
            <mxPoint x="420" y="1100" as="targetPoint" />
            <Array as="points">
              <mxPoint x="800" y="1160" />
              <mxPoint x="800" y="1100" />
            </Array>
          </mxGeometry>
        </mxCell>
        <mxCell id="H8iJmq6g7aI64bjXb-Z5-120" value="" style="endArrow=classic;html=1;exitX=1;exitY=0.5;exitDx=0;exitDy=0;" parent="1" edge="1">
          <mxGeometry width="50" height="50" relative="1" as="geometry">
            <mxPoint x="769" y="1269.9999999999998" as="sourcePoint" />
            <mxPoint x="420" y="1210" as="targetPoint" />
            <Array as="points">
              <mxPoint x="800" y="1270" />
              <mxPoint x="800" y="1210" />
            </Array>
          </mxGeometry>
        </mxCell>
        <mxCell id="H8iJmq6g7aI64bjXb-Z5-127" style="edgeStyle=orthogonalEdgeStyle;rounded=0;orthogonalLoop=1;jettySize=auto;html=1;exitX=0.5;exitY=1;exitDx=0;exitDy=0;entryX=0.5;entryY=0;entryDx=0;entryDy=0;" parent="1" source="H8iJmq6g7aI64bjXb-Z5-123" target="H8iJmq6g7aI64bjXb-Z5-125" edge="1">
          <mxGeometry relative="1" as="geometry" />
        </mxCell>
        <mxCell id="H8iJmq6g7aI64bjXb-Z5-123" value="&lt;font style=&quot;font-size: 16px&quot;&gt;调用&lt;font color=&quot;#ea6b66&quot;&gt;路径处理函数&lt;/font&gt;，转到配置中设定的路径&lt;/font&gt;" style="rounded=1;whiteSpace=wrap;html=1;fillColor=#dae8fc;strokeColor=#6c8ebf;" parent="1" vertex="1">
          <mxGeometry x="318.25" y="1470" width="190" height="60" as="geometry" />
        </mxCell>
        <mxCell id="H8iJmq6g7aI64bjXb-Z5-124" value="" style="endArrow=classic;html=1;exitX=1;exitY=0.5;exitDx=0;exitDy=0;" parent="1" source="H8iJmq6g7aI64bjXb-Z5-88" edge="1">
          <mxGeometry width="50" height="50" relative="1" as="geometry">
            <mxPoint x="530" y="1420" as="sourcePoint" />
            <mxPoint x="510" y="1500" as="targetPoint" />
            <Array as="points">
              <mxPoint x="800" y="1380" />
              <mxPoint x="800" y="1500" />
            </Array>
          </mxGeometry>
        </mxCell>
        <mxCell id="H8iJmq6g7aI64bjXb-Z5-129" style="edgeStyle=orthogonalEdgeStyle;rounded=0;orthogonalLoop=1;jettySize=auto;html=1;exitX=0.5;exitY=1;exitDx=0;exitDy=0;entryX=0.5;entryY=0;entryDx=0;entryDy=0;" parent="1" source="H8iJmq6g7aI64bjXb-Z5-125" target="H8iJmq6g7aI64bjXb-Z5-128" edge="1">
          <mxGeometry relative="1" as="geometry" />
        </mxCell>
        <mxCell id="H8iJmq6g7aI64bjXb-Z5-125" value="&lt;font style=&quot;font-size: 16px&quot;&gt;调用&lt;font color=&quot;#ea6b66&quot;&gt;数据文件生成函数&lt;/font&gt;，根据配置生成相应格式的文件&lt;/font&gt;" style="rounded=1;whiteSpace=wrap;html=1;fillColor=#dae8fc;strokeColor=#6c8ebf;" parent="1" vertex="1">
          <mxGeometry x="302.13" y="1560" width="221.75" height="60" as="geometry" />
        </mxCell>
        <mxCell id="H8iJmq6g7aI64bjXb-Z5-128" value="&lt;font style=&quot;font-size: 16px&quot;&gt;Run函数结束&lt;/font&gt;" style="rounded=0;whiteSpace=wrap;html=1;fillColor=#fff2cc;strokeColor=#d6b656;" parent="1" vertex="1">
          <mxGeometry x="353" y="1650" width="120" height="60" as="geometry" />
        </mxCell>
        <mxCell id="H8iJmq6g7aI64bjXb-Z5-130" value="" style="endArrow=classic;html=1;exitX=0;exitY=0.5;exitDx=0;exitDy=0;entryX=0;entryY=0.5;entryDx=0;entryDy=0;" parent="1" source="H8iJmq6g7aI64bjXb-Z5-4" target="H8iJmq6g7aI64bjXb-Z5-128" edge="1">
          <mxGeometry width="50" height="50" relative="1" as="geometry">
            <mxPoint x="450" y="450" as="sourcePoint" />
            <mxPoint x="240" y="1690" as="targetPoint" />
            <Array as="points">
              <mxPoint x="40" y="305" />
              <mxPoint x="40" y="1680" />
            </Array>
          </mxGeometry>
        </mxCell>
      </root>
    </mxGraphModel>
  </diagram>
</mxfile>
